<?xml version="1.0" encoding="utf-8"?>
<!-- Generator: Adobe Illustrator 24.0.3, SVG Export Plug-In . SVG Version: 6.00 Build 0)  -->
<svg version="1.1" id="Layer_1" xmlns="http://www.w3.org/2000/svg" xmlns:xlink="http://www.w3.org/1999/xlink" x="0px" y="0px"
	 viewBox="0 0 356 356" style="enable-background:new 0 0 356 356;" xml:space="preserve">
<g transform="matrix(.1 0 0 -.1 0 356)">
	<path d="M2465,3165c-98-26-166-57-257-117c-174-114-374-300-420-393c-92-182-305-438-446-537c-14-9-22-24-20-34
		c10-54,240-150,296-125c12,6,31,11,42,11c10,0,58,14,106,32c156,56,374,224,448,346c35,58,89,114,161,169c85,65,150,83,188,53
		c44-35,22-80-62-125c-55-31-154-120-185-168c-18-27-18-27,20-75c58-71,160-168,232-219c36-26,119-69,191-98c192-78,324-164,368-240
		c11-19,12-19,42,15c195,223,285,524,237,790c-18,97-63,223-107,296c-69,116-274,300-412,371C2773,3175,2582,3197,2465,3165z"/>
	<path d="M880,3159c-201-35-366-134-506-303c-71-85-168-237-176-276c-2-8-6-17-10-20s-19-46-34-95c-22-76-26-109-26-210
		c0-154,24-241,105-377l58-97l108,107c114,114,193,168,265,184c85,18,176-42,251-167c20-33,41-79,46-102l11-42l63,6
		c89,8,152-15,221-82c97-96,137-220,99-311c-8-20-13-40-10-44s24-11,48-14c60-9,158-57,199-98c24-25,42-59,63-121
		c26-80,27-91,16-134c-6-27-13-54-14-62c-1-10,21-20,68-33c129-35,119-34,110-7c-11,35-10,76,4,93c20,24,70,8,126-39
		c150-126,284-209,387-241c48-14,61-15,87-4c64,26,161,164,135,190c-5,5-70,37-144,71s-153,74-175,89c-22,14-66,41-97,59
		c-84,47-309,208-335,239c-67,80,17,142,102,76c259-201,603-391,773-427c47-10,57-9,89,8c20,11,44,36,54,55c60,116,63,146,15,210
		c-28,38-55,57-167,114c-166,85-411,239-444,278c-27,32-33,76-13,96c27,27,73,13,152-43c105-75,257-164,401-235c66-32,126-68,133-79
		c17-29,33-26,69,11c64,69,71,128,22,201c-40,61-164,134-352,208c-119,47-250,143-367,272c-34,37-69,67-78,67c-10,0-44-24-77-53
		c-80-71-102-85-227-150c-137-71-224-91-357-85c-138,8-206,38-319,142c-40,37-79,112-74,143c2,14,29,40,70,70c37,26,107,86,156,133
		c86,82,206,228,206,249c0,6,4,11,9,11c10,0,91,141,91,158c0,21-217,224-295,275c-121,82-144,94-213,116
		C1107,3164,962,3174,880,3159z"/>
	<path d="M629,1921c-67-43-137-108-200-188c-122-154-138-239-64-350c37-57,169-193,187-193c5,0,14,14,20,30c41,119,117,242,225,367
		c47,55,53,66,53,107c0,69-35,151-89,207c-26,27-56,49-67,49S654,1937,629,1921z"/>
	<path d="M971,1579c-135-119-248-284-303-446l-29-84l21-65c28-83,73-142,135-176c65-36,123-37,162-4c58,48,165,272,238,496
		c15,47,34,94,41,105c29,41,9,96-64,179c-35,40-76,66-104,66C1058,1650,1015,1618,971,1579z"/>
	<path d="M1281,1189c-5-13-25-64-44-114c-50-128-104-242-144-302l-35-53l31-38c47-60,105-108,144-121c51-17,97,7,153,78
		c75,94,164,303,164,382c0,76-113,172-218,186C1295,1212,1289,1210,1281,1189z"/>
	<path d="M1584,728c-10-23-43-78-71-121c-29-43-53-82-53-87c0-16,84-82,135-106c28-13,68-24,89-24c33,0,46,7,81,43
		c25,26,47,63,58,95c16,51,16,55-3,106c-11,29-28,60-38,69c-28,25-94,55-138,62C1604,771,1603,771,1584,728z"/>
	<path d="M1910,757c0-7,10-40,22-72c15-42,21-80,20-127c-2-65-1-68,28-83c16-8,36-15,44-15c35,0,142,124,131,152c-3,7-27,25-53,39
		c-26,15-75,47-108,73C1931,771,1910,780,1910,757z"/>
</g>
</svg>
