<?xml version="1.0" standalone="no"?>
<!DOCTYPE svg PUBLIC "-//W3C//DTD SVG 20010904//EN"
 "http://www.w3.org/TR/2001/REC-SVG-20010904/DTD/svg10.dtd">
<svg version="1.0" xmlns="http://www.w3.org/2000/svg"
 width="356.000000pt" height="356.000000pt" viewBox="0 0 356.000000 356.000000"
 preserveAspectRatio="xMidYMid meet">
<metadata>
Created by potrace 1.11, written by Peter Selinger 2001-2013
</metadata>
<g transform="translate(0.000000,356.000000) scale(0.100000,-0.100000)"
fill="#000000" stroke="none">
<path d="M2465 3165 c-98 -26 -166 -57 -257 -117 -174 -114 -374 -300 -420
-393 -92 -182 -305 -438 -446 -537 -14 -9 -22 -24 -20 -34 10 -54 240 -150
296 -125 12 6 31 11 42 11 10 0 58 14 106 32 156 56 374 224 448 346 35 58 89
114 161 169 85 65 150 83 188 53 44 -35 22 -80 -62 -125 -55 -31 -154 -120
-185 -168 -18 -27 -18 -27 20 -75 58 -71 160 -168 232 -219 36 -26 119 -69
191 -98 192 -78 324 -164 368 -240 11 -19 12 -19 42 15 195 223 285 524 237
790 -18 97 -63 223 -107 296 -69 116 -274 300 -412 371 -114 58 -305 80 -422
48z"/>
<path d="M880 3159 c-201 -35 -366 -134 -506 -303 -71 -85 -168 -237 -176
-276 -2 -8 -6 -17 -10 -20 -4 -3 -19 -46 -34 -95 -22 -76 -26 -109 -26 -210 0
-154 24 -241 105 -377 l58 -97 108 107 c114 114 193 168 265 184 85 18 176
-42 251 -167 20 -33 41 -79 46 -102 l11 -42 63 6 c89 8 152 -15 221 -82 97
-96 137 -220 99 -311 -8 -20 -13 -40 -10 -44 3 -4 24 -11 48 -14 60 -9 158
-57 199 -98 24 -25 42 -59 63 -121 26 -80 27 -91 16 -134 -6 -27 -13 -54 -14
-62 -1 -10 21 -20 68 -33 129 -35 119 -34 110 -7 -11 35 -10 76 4 93 20 24 70
8 126 -39 150 -126 284 -209 387 -241 48 -14 61 -15 87 -4 64 26 161 164 135
190 -5 5 -70 37 -144 71 -74 34 -153 74 -175 89 -22 14 -66 41 -97 59 -84 47
-309 208 -335 239 -67 80 17 142 102 76 259 -201 603 -391 773 -427 47 -10 57
-9 89 8 20 11 44 36 54 55 60 116 63 146 15 210 -28 38 -55 57 -167 114 -166
85 -411 239 -444 278 -27 32 -33 76 -13 96 27 27 73 13 152 -43 105 -75 257
-164 401 -235 66 -32 126 -68 133 -79 17 -29 33 -26 69 11 64 69 71 128 22
201 -40 61 -164 134 -352 208 -119 47 -250 143 -367 272 -34 37 -69 67 -78 67
-10 0 -44 -24 -77 -53 -80 -71 -102 -85 -227 -150 -137 -71 -224 -91 -357 -85
-138 8 -206 38 -319 142 -40 37 -79 112 -74 143 2 14 29 40 70 70 37 26 107
86 156 133 86 82 206 228 206 249 0 6 4 11 9 11 10 0 91 141 91 158 0 21 -217
224 -295 275 -121 82 -144 94 -213 116 -75 25 -220 35 -302 20z"/>
<path d="M629 1921 c-67 -43 -137 -108 -200 -188 -122 -154 -138 -239 -64
-350 37 -57 169 -193 187 -193 5 0 14 14 20 30 41 119 117 242 225 367 47 55
53 66 53 107 0 69 -35 151 -89 207 -26 27 -56 49 -67 49 -11 0 -40 -13 -65
-29z"/>
<path d="M971 1579 c-135 -119 -248 -284 -303 -446 l-29 -84 21 -65 c28 -83
73 -142 135 -176 65 -36 123 -37 162 -4 58 48 165 272 238 496 15 47 34 94 41
105 29 41 9 96 -64 179 -35 40 -76 66 -104 66 -10 0 -53 -32 -97 -71z"/>
<path d="M1281 1189 c-5 -13 -25 -64 -44 -114 -50 -128 -104 -242 -144 -302
l-35 -53 31 -38 c47 -60 105 -108 144 -121 51 -17 97 7 153 78 75 94 164 303
164 382 0 76 -113 172 -218 186 -37 5 -43 3 -51 -18z"/>
<path d="M1584 728 c-10 -23 -43 -78 -71 -121 -29 -43 -53 -82 -53 -87 0 -16
84 -82 135 -106 28 -13 68 -24 89 -24 33 0 46 7 81 43 25 26 47 63 58 95 16
51 16 55 -3 106 -11 29 -28 60 -38 69 -28 25 -94 55 -138 62 -40 6 -41 6 -60
-37z"/>
<path d="M1910 757 c0 -7 10 -40 22 -72 15 -42 21 -80 20 -127 -2 -65 -1 -68
28 -83 16 -8 36 -15 44 -15 35 0 142 124 131 152 -3 7 -27 25 -53 39 -26 15
-75 47 -108 73 -63 47 -84 56 -84 33z"/>
</g>
</svg>
